<svg width="19" height="18" viewBox="0 0 19 18" fill="none" xmlns="http://www.w3.org/2000/svg">
<path d="M18.5532 16.9409L13.863 12.2507C15.0813 10.7606 15.6803 8.85926 15.5361 6.93992C15.3919 5.02058 14.5155 3.2301 13.0882 1.93881C11.6609 0.647526 9.79185 -0.0457634 7.8677 0.00234632C5.94356 0.050456 4.11151 0.836284 2.75051 2.19729C1.38951 3.55829 0.603679 5.39034 0.555569 7.31448C0.507459 9.23863 1.20075 11.1077 2.49203 12.535C3.78332 13.9623 5.57381 14.8387 7.49314 14.9829C9.41248 15.1271 11.3138 14.5281 12.8039 13.3098L17.4941 18L18.5532 16.9409ZM8.06721 13.506C6.8821 13.506 5.72361 13.1546 4.73823 12.4962C3.75284 11.8377 2.98483 10.9019 2.53131 9.80703C2.07779 8.71213 1.95913 7.50734 2.19033 6.345C2.42154 5.18267 2.99222 4.11499 3.83022 3.27699C4.66821 2.439 5.73589 1.86831 6.89822 1.63711C8.06056 1.40591 9.26535 1.52457 10.3602 1.97809C11.4551 2.43161 12.391 3.19962 13.0494 4.185C13.7078 5.17038 14.0592 6.32888 14.0592 7.51398C14.0574 9.10262 13.4256 10.6257 12.3022 11.749C11.1789 12.8723 9.65584 13.5042 8.06721 13.506Z" fill="#464646"/>
</svg>
